<?xml version="1.0" standalone="no"?>
<!DOCTYPE svg PUBLIC "-//W3C//DTD SVG 1.1//EN" "http://www.w3.org/Graphics/SVG/1.1/DTD/svg11.dtd" >
<svg xmlns="http://www.w3.org/2000/svg" xmlns:xlink="http://www.w3.org/1999/xlink" version="1.1">
<metadata>
Created by FontForge 20160405 at Wed May 24 02:29:59 2017
 By www-data
Copyright Erik Spiekermann, 1991, 93, 98, 99. Published by FontShop International for  FontFont library. Meta is a trademark of FSI, Fonts and Software GmbH. Created by Erik Spiekermann, Dmitri Sorokin. Vendor URL: http://www.fontfont.de
</metadata>
<defs>
<font id="MetaBookCE-Caps" horiz-adv-x="692" >
  <font-face 
    font-family="MetaBookCE Caps"
    font-weight="500"
    font-style="italic"
    font-variant="small-caps"
    font-stretch="normal"
    units-per-em="1000"
    panose-1="0 0 0 0 0 0 0 0 0 0"
    ascent="800"
    descent="-200"
    x-height="537"
    cap-height="689"
    bbox="-20 -279 1028 956"
    underline-thickness="20"
    underline-position="-162"
    slope="-11"
    unicode-range="U+0020-25CA"
  />
<missing-glyph horiz-adv-x="1000" 
 />
    <glyph glyph-name=".notdef" horiz-adv-x="1000" 
 />
    <glyph glyph-name=".null" horiz-adv-x="0" 
 />
    <glyph glyph-name="nonmarkingreturn" horiz-adv-x="333" 
 />
    <glyph glyph-name="space" unicode=" " horiz-adv-x="250" 
 />
    <glyph glyph-name="exclam" unicode="!" horiz-adv-x="281" 
d="M196 704l-22 -494h-70l-23 477zM206 60q0 -28 -20 -48t-47 -20t-45.5 19.5t-18.5 48.5q0 27 18.5 46t46.5 19q27 0 46.5 -19t19.5 -46z" />
    <glyph glyph-name="quotedbl" unicode="&#x22;" horiz-adv-x="424" 
d="M344 453h-85v256h85v-256zM165 453h-85v256h85v-256z" />
    <glyph glyph-name="numbersign" unicode="#" horiz-adv-x="551" 
d="M521 430h-103l-21 -151h94v-68h-103l-30 -211h-72l29 211h-122l-29 -211h-72l29 211h-91v68h101l20 151h-92v69h102l29 209h72l-29 -209h122l29 209h72l-29 -209h94v-69zM346 430h-122l-21 -151h122z" />
    <glyph glyph-name="dollar" unicode="$" horiz-adv-x="582" 
d="M532 203q0 -81 -59 -140t-148 -72v-93h-62v90q-114 0 -213 60l38 75q90 -56 175 -56v250l-36 12q-83 27 -116 67q-37 44 -37 108q0 81 50.5 133.5t138.5 66.5v80h62v-79q99 -3 188 -65l-43 -68q-84 52 -145 52v-214l39 -12q84 -26 122 -71q46 -54 46 -124zM263 426v194
q-82 -22 -82 -99q0 -34 19 -56t63 -39zM423 186q0 81 -98 112v-227q44 10 71 40.5t27 74.5z" />
    <glyph glyph-name="percent" unicode="%" horiz-adv-x="850" 
d="M810 160q0 -77 -45.5 -122.5t-118.5 -45.5q-77 0 -120.5 45.5t-43.5 124.5q0 77 44.5 123t117.5 46q78 0 122 -45.5t44 -125.5zM631 687l-341 -686h-68l340 686h69zM368 525q0 -77 -45.5 -122.5t-118.5 -45.5q-77 0 -120.5 45.5t-43.5 124.5q0 77 44.5 123t117.5 46
q78 0 122 -45.5t44 -125.5zM733 156q0 64 -21.5 91t-66.5 27q-86 0 -86 -108q0 -64 21 -90.5t67 -26.5q86 0 86 107zM291 521q0 64 -21.5 91t-66.5 27q-86 0 -86 -108q0 -64 21 -90.5t67 -26.5q86 0 86 107z" />
    <glyph glyph-name="ampersand" unicode="&#x26;" horiz-adv-x="679" 
d="M669 2h-125l-60 59q-67 -75 -194 -75q-114 0 -174.5 51.5t-60.5 134.5q0 63 34 101t104 74q-50 40 -72 74.5t-22 79.5q0 68 51 114t131 46t134 -41.5t54 -112.5q0 -100 -141 -164l149 -148q19 44 19 135h76q0 -75 -7.5 -115.5t-26.5 -81.5zM370 507q0 39 -25 64t-63 25
t-62.5 -22t-24.5 -63q0 -55 82 -121q93 45 93 117zM432 113l-189 186q-88 -47 -88 -128q0 -53 36.5 -84.5t101.5 -31.5q94 0 139 58z" />
    <glyph glyph-name="quotesingle" unicode="'" horiz-adv-x="245" 
d="M165 453h-85v256h85v-256z" />
    <glyph glyph-name="parenleft" unicode="(" horiz-adv-x="295" 
d="M315 -111l-24 -48q-66 25 -117 78t-79 126q-40 105 -40 277q0 180 47 269q72 134 188 184l23 -48q-57 -38 -88.5 -78t-49.5 -98q-26 -87 -26 -227q0 -165 29 -258q41 -130 137 -177z" />
    <glyph glyph-name="parenright" unicode=")" horiz-adv-x="296" 
d="M241 322q0 -178 -41 -277q-30 -73 -80.5 -126t-115.5 -78l-24 48q96 47 137 177q30 92 30 258q0 126 -27 227q-16 58 -48 97.5t-90 78.5l23 48q116 -50 188 -184q48 -91 48 -269z" />
    <glyph glyph-name="asterisk" unicode="*" horiz-adv-x="450" 
d="M420 540l-138 -47l87 -121l-56 -44l-89 125l-85 -123l-56 43l87 120l-140 48l22 68l140 -50v149h68v-148l139 47z" />
    <glyph glyph-name="plus" unicode="+" horiz-adv-x="565" 
d="M515 227h-190v-193h-85v193h-190v87h190v193h85v-193h190v-87z" />
    <glyph glyph-name="comma" unicode="," horiz-adv-x="287" 
d="M217 34q0 -58 -35.5 -106t-89.5 -71l-32 45q27 11 46 33t19 42q0 4 -1.5 7t-5 6t-6.5 4.5l-9 4.5t-9 5q-33 19 -33 58q0 32 21 53.5t52 21.5q36 0 59.5 -29t23.5 -74z" />
    <glyph glyph-name="hyphen" unicode="-" horiz-adv-x="303" 
d="M253 225h-203v91h203v-91z" />
    <glyph glyph-name="period" unicode="." horiz-adv-x="282" 
d="M212 61q0 -31 -20.5 -53t-50.5 -22t-50.5 22t-20.5 53t20.5 53t50.5 22t50.5 -22t20.5 -53z" />
    <glyph glyph-name="slash" unicode="/" horiz-adv-x="448" 
d="M388 761l-260 -910h-68l260 910h68z" />
    <glyph glyph-name="zero" unicode="0" horiz-adv-x="561" 
d="M506 249q0 -120 -61.5 -191.5t-163.5 -71.5q-106 0 -166 71t-60 194q0 121 61.5 192.5t163.5 71.5q106 0 166 -71.5t60 -194.5zM407 240q0 111 -31 157.5t-97 46.5q-125 0 -125 -183q0 -111 31 -157.5t97 -46.5q125 0 125 183z" />
    <glyph glyph-name="one" unicode="1" horiz-adv-x="422" 
d="M377 0h-276v74h98v332q-59 -38 -132 -66l-22 48l177 125h67v-439h88v-74z" />
    <glyph glyph-name="two" unicode="2" horiz-adv-x="543" 
d="M478 76l-19 -76h-389v81l130 95q82 60 116 97t34 85q0 40 -26.5 61.5t-74.5 21.5q-33 0 -70.5 -15.5t-58.5 -31.5l-20 -16l-45 51q106 93 220 93q81 0 131.5 -40.5t50.5 -109.5q0 -104 -161 -217l-117 -82q69 3 103 3h196z" />
    <glyph glyph-name="three" unicode="3" horiz-adv-x="517" 
d="M462 51q0 -71 -46 -123q-100 -111 -295 -111q-36 0 -60 4l-20 62q68 -13 150 5q72 16 118.5 61.5t46.5 109.5q0 36 -19.5 64t-52.5 39q-44 15 -110 11l-23 -1v71l24 -1q40 -2 67 1q101 13 101 98q0 45 -29.5 72.5t-80.5 27.5q-40 0 -73.5 -13t-80.5 -42l-44 52
q43 36 100.5 58t112.5 22q86 0 141.5 -46.5t55.5 -117.5q0 -51 -30.5 -90.5t-90.5 -59.5q62 -16 100 -58t38 -95z" />
    <glyph glyph-name="four" unicode="4" horiz-adv-x="553" 
d="M498 8h-48l-32 2q3 -19 3 -35v-145l-89 -19v161l1 37q-25 -1 -41 -1h-257v69l215 444h98l-171 -354q-33 -67 -48 -86q5 0 18 1.5t21 1.5h124l43 -1l-2 29q-1 20 5 97l11 131l72 20v-191q0 -33 -1 -55l-1 -31q22 1 35 1h44v-76z" />
    <glyph glyph-name="five" unicode="5" horiz-adv-x="490" 
d="M435 57q0 -108 -85 -176t-210 -68q-37 0 -72 9l-18 67q36 -13 78 -13q88 0 147.5 50.5t59.5 124.5q0 58 -37.5 91.5t-101.5 33.5q-71 0 -131 -22l32 347h306l-14 -78h-207l-16 -181q33 5 64 5q89 0 147 -51.5t58 -138.5z" />
    <glyph glyph-name="six" unicode="6" horiz-adv-x="562" 
d="M507 206q0 -94 -64 -157.5t-158 -63.5q-103 0 -166.5 76t-63.5 200q0 101 46 187t123 148q92 75 201 107l21 -62q-49 -15 -102.5 -48.5t-87.5 -70.5q-58 -64 -88 -168q58 52 138 52q81 0 141 -55.5t60 -144.5zM406 204q0 61 -32.5 95.5t-84.5 34.5q-62 0 -126 -46
q-3 -24 -3 -58q0 -85 32.5 -129.5t90.5 -44.5q56 0 89.5 40t33.5 108z" />
    <glyph glyph-name="seven" unicode="7" horiz-adv-x="481" 
d="M456 501l-19 -88q-36 -52 -81 -126q-50 -82 -114 -234q-58 -139 -75 -215l-108 -29q17 83 52 174q38 100 94 204q79 148 158 239q-19 -5 -83 -5h-255l21 80h410z" />
    <glyph glyph-name="eight" unicode="8" horiz-adv-x="576" 
d="M521 181q0 -86 -67 -142t-171 -56q-103 0 -165.5 52t-62.5 134q0 63 39 108t99 68q-116 49 -116 154q0 77 58.5 124t159.5 47q90 0 146.5 -44t56.5 -114q0 -107 -140 -157q19 -6 51 -23t54 -35q58 -47 58 -116zM402 510q0 43 -31.5 68.5t-85.5 25.5q-53 0 -84.5 -26
t-31.5 -70q0 -37 29.5 -65.5t96.5 -55.5q56 29 81.5 58.5t25.5 64.5zM421 162q0 49 -31 77q-30 27 -141 73q-47 -26 -71 -57t-24 -79q0 -57 37.5 -91t100.5 -34q57 0 93 31t36 80z" />
    <glyph glyph-name="nine" unicode="9" horiz-adv-x="547" 
d="M492 266q0 -182 -140 -328q-51 -53 -121 -91.5t-133 -51.5l-48 54q46 9 102.5 38t98.5 66q77 67 114 167q-58 -40 -118 -40q-87 0 -144.5 60.5t-57.5 152.5q0 97 65 162t162 65q98 0 159 -68.5t61 -185.5zM391 279q0 77 -33.5 123.5t-89.5 46.5q-55 0 -88 -42.5
t-33 -110.5q0 -67 31.5 -105.5t86.5 -38.5q59 0 116 50q10 46 10 77z" />
    <glyph glyph-name="colon" unicode=":" horiz-adv-x="301" 
d="M221 375q0 -31 -21 -52t-50 -21t-49.5 20.5t-20.5 50.5t20.5 51.5t50.5 21.5q29 0 49.5 -21t20.5 -50zM221 59q0 -30 -21 -50.5t-51 -20.5q-29 0 -49 20.5t-20 50.5q0 31 20.5 52.5t50.5 21.5q29 0 49.5 -21.5t20.5 -52.5z" />
    <glyph glyph-name="semicolon" unicode=";" horiz-adv-x="317" 
d="M223 373q0 -29 -21 -50.5t-50 -21.5t-50 21.5t-21 51.5q0 29 20.5 50t49.5 21t50.5 -21.5t21.5 -50.5zM237 34q0 -58 -35.5 -106t-89.5 -71l-32 45q27 11 46 33t19 42q0 4 -1.5 7t-5 6t-6.5 4.5l-9 4.5t-9 5q-33 19 -33 58q0 32 21 53.5t52 21.5q36 0 59.5 -29t23.5 -74z
" />
    <glyph glyph-name="less" unicode="&#x3c;" horiz-adv-x="340" 
d="M300 84l-76 -55l-204 271l204 270l76 -55l-162 -215z" />
    <glyph glyph-name="equal" unicode="=" horiz-adv-x="625" 
d="M575 350h-525v83h525v-83zM575 175h-525v83h525v-83z" />
    <glyph glyph-name="greater" unicode="&#x3e;" horiz-adv-x="340" 
d="M320 300l-205 -271l-75 55l162 216l-162 215l75 55z" />
    <glyph glyph-name="question" unicode="?" horiz-adv-x="437" 
d="M387 547q0 -17 -3.5 -33t-8.5 -28.5t-13.5 -25t-15 -20t-17.5 -17.5t-15.5 -13.5t-15.5 -11.5l-10 -7q-68 -48 -61 -135q1 -6 2.5 -16t1.5 -15h-79q-1 2 -2.5 10.5t-1.5 10.5q-18 107 64 182q8 8 27 22.5t29 23t18.5 26t8.5 38.5q0 38 -26 60t-65 22q-61 0 -125 -44
l-39 60q76 64 183 64q71 0 117.5 -42t46.5 -111zM272 60q0 -30 -21 -51.5t-50 -21.5q-28 0 -48 21.5t-20 51.5q0 28 19.5 48t48.5 20t50 -20t21 -48z" />
    <glyph glyph-name="at" unicode="@" horiz-adv-x="921" 
d="M866 276q0 -129 -66 -209.5t-161 -80.5q-55 0 -83.5 24.5t-31.5 62.5q-28 -33 -67.5 -54t-82.5 -21q-49 0 -85 37.5t-36 107.5q0 128 72.5 219t201.5 91q68 0 135 -36q-20 -67 -63 -269q-11 -58 -1.5 -76.5t44.5 -18.5q54 0 95 64.5t41 158.5q0 119 -86.5 200.5
t-222.5 81.5q-141 0 -233 -106t-92 -247q0 -131 89.5 -216t217.5 -85q78 0 144 22l18 -68q-70 -23 -162 -23q-80 0 -151 24.5t-126 70.5t-87 117t-32 158q0 178 117.5 299t296.5 121q171 0 284 -96.5t113 -252.5zM562 380q-15 7 -42 7q-59 0 -101.5 -40t-60 -94t-17.5 -114
q0 -38 13.5 -53t40.5 -15q36 0 75.5 34.5t52.5 95.5z" />
    <glyph glyph-name="A" unicode="A" horiz-adv-x="568" 
d="M568 0h-108l-61 195h-239l-60 -195h-100l226 690h120zM378 275q-9 24 -47.5 156.5t-45.5 162.5h-6q-8 -31 -47 -163t-48 -156h194z" />
    <glyph glyph-name="B" unicode="B" horiz-adv-x="618" 
d="M553 189q0 -69 -38 -115.5t-101 -62.5q-43 -11 -109 -11h-210v689h146q89 0 123.5 -4.5t66.5 -21.5q93 -49 93 -144q0 -115 -125 -152q77 -17 115.5 -63t38.5 -115zM420 503q0 36 -18.5 62.5t-48.5 35.5q-22 7 -70 7h-94v-210h109q44 0 65 8.5t37 29.5q20 28 20 67z
M447 200q0 42 -21 73t-53 39q-27 6 -72 6h-111v-240h136q49 0 85 30.5t36 91.5z" />
    <glyph glyph-name="C" unicode="C" horiz-adv-x="590" 
d="M540 47q-79 -57 -186 -57q-133 0 -214 103q-75 96 -75 246q0 118 45 205q39 74 104 116t144 42q103 0 169 -54l-47 -63q-54 40 -122 40q-104 0 -153 -99q-33 -66 -33 -185q0 -103 25 -162q23 -55 67.5 -83.5t101.5 -28.5q72 0 127 43z" />
    <glyph glyph-name="D" unicode="D" horiz-adv-x="639" 
d="M574 344q0 -158 -75 -251q-38 -47 -91.5 -70t-140.5 -23h-172v689h160q92 0 152 -25.5t106 -88.5q61 -85 61 -231zM467 332q0 154 -51 219q-28 35 -60.5 48t-84.5 13h-78v-533h76q118 0 161 77q37 68 37 176z" />
    <glyph glyph-name="E" unicode="E" horiz-adv-x="511" 
d="M481 0h-386v689h375l-13 -79h-265v-210h222v-81h-221v-236h288v-83z" />
    <glyph glyph-name="F" unicode="F" horiz-adv-x="454" 
d="M454 689l-13 -79h-249v-209h204v-78h-204v-323h-97v689h359z" />
    <glyph glyph-name="G" unicode="G" horiz-adv-x="657" 
d="M567 45q-88 -55 -204 -55q-139 0 -218 93q-80 93 -80 258q0 200 119 298q72 59 173 59q116 0 195 -69l-46 -60q-72 52 -147 52q-105 0 -148 -88q-23 -47 -30.5 -89.5t-7.5 -107.5q0 -144 49 -208q22 -29 62.5 -45.5t85.5 -16.5q57 0 102 26v196h-127l-16 79h238v-322z
" />
    <glyph glyph-name="H" unicode="H" horiz-adv-x="645" 
d="M550 0h-97v327h-263v-327h-95v689h95v-283h263v283h97v-689z" />
    <glyph glyph-name="I" unicode="I" horiz-adv-x="288" 
d="M193 0h-98v689h98v-689z" />
    <glyph glyph-name="J" unicode="J" horiz-adv-x="293" 
d="M198 122q0 -74 -7 -111.5t-27 -66.5q-39 -57 -114 -85l-45 53q55 28 79 74q17 34 17 129v574h97v-567z" />
    <glyph glyph-name="K" unicode="K" horiz-adv-x="588" 
d="M568 0h-125l-246 368l241 321h121l-252 -320zM193 0h-98v689h98v-689z" />
    <glyph glyph-name="L" unicode="L" horiz-adv-x="465" 
d="M455 80l-16 -80h-344v689h98v-609h262z" />
    <glyph glyph-name="M" unicode="M" horiz-adv-x="819" 
d="M749 0h-96l-36 469q-1 16 -2 39t-2 45t-1 28h-2q-12 -58 -25 -103l-137 -478h-83l-126 456q-14 49 -31 126h-2q-4 -84 -7 -126l-35 -456h-94l62 689h135l116 -423q20 -74 25 -113h2q11 61 24 108l120 428h136z" />
    <glyph glyph-name="N" unicode="N" horiz-adv-x="649" 
d="M554 0h-103l-181 366q-66 134 -84 189l-6 -1q6 -72 8 -192l4 -362h-97v689h112l192 -380q20 -39 41.5 -93.5t26.5 -71.5l6 2q-10 100 -10 205l-2 338h93v-689z" />
    <glyph glyph-name="O" unicode="O" 
d="M627 340q0 -160 -74 -255.5t-204 -95.5q-138 0 -211 98.5t-73 259.5q0 168 75 261t204 93q74 0 129.5 -29t88.5 -80t49 -114.5t16 -137.5zM517 331q0 147 -39.5 221t-133.5 74q-90 0 -130.5 -66t-40.5 -202q0 -142 40 -219t136 -77q168 0 168 269z" />
    <glyph glyph-name="P" unicode="P" horiz-adv-x="564" 
d="M534 489q0 -59 -19.5 -100.5t-64.5 -76.5q-54 -42 -145 -42h-114v-270h-96v689h184q113 0 164 -32q91 -57 91 -168zM427 478q0 65 -34 98q-35 34 -112 34h-90v-262h108q68 0 99 39q29 37 29 91z" />
    <glyph glyph-name="Q" unicode="Q" 
d="M701 -47l-27 -68q-18 -10 -58 -10q-47 0 -128 51q-74 48 -145 64q-122 0 -198 91q-80 95 -80 267q0 113 37 196t104 123q58 34 137 34q142 0 217 -107q67 -96 67 -253q0 -181 -98 -279q-24 -24 -48 -39q18 -7 86 -45q49 -29 91 -29q25 0 43 4zM516 332q0 130 -29 200
q-16 39 -51.5 66.5t-92.5 27.5q-43 0 -80 -20.5t-55 -53.5q-36 -68 -36 -194q0 -171 51 -237q45 -58 126 -58q80 0 122 61q45 64 45 208z" />
    <glyph glyph-name="R" unicode="R" horiz-adv-x="576" 
d="M546 0h-117q-23 45 -57 102q-71 119 -119 172q-27 30 -62 31v-305h-96v689h193q110 0 163 -50q61 -57 61 -142q0 -83 -50 -137.5t-134 -51.5q31 -25 60 -64q28 -38 58 -85q17 -27 56.5 -89.5t43.5 -69.5zM411 496q0 35 -17.5 62.5t-46.5 38.5q-33 13 -84 13h-72v-240h67
q85 0 119 33q34 32 34 93z" />
    <glyph glyph-name="S" unicode="S" horiz-adv-x="602" 
d="M542 201q0 -82 -67.5 -148t-192.5 -66q-122 0 -222 61l38 74q92 -57 186 -57q68 0 108.5 32.5t40.5 87.5q0 84 -114 117l-72 21q-82 24 -122.5 65.5t-40.5 112.5q0 89 63 144.5t165 55.5q119 0 211 -65l-43 -68q-89 54 -164 54q-58 0 -91.5 -28t-33.5 -76q0 -37 23.5 -60
t78.5 -39l81 -24q75 -22 121.5 -70.5t46.5 -123.5z" />
    <glyph glyph-name="T" unicode="T" horiz-adv-x="463" 
d="M483 689l-10 -80h-179v-609h-95v609h-179v80h463z" />
    <glyph glyph-name="U" unicode="U" horiz-adv-x="644" 
d="M554 216q0 -65 -6.5 -91.5t-29.5 -54.5q-66 -81 -198 -81q-155 0 -208 96q-14 24 -18 47t-4 76v481h97v-445q0 -105 25 -134q34 -39 109 -39q78 0 112 45q25 32 25 114v459h96v-473z" />
    <glyph glyph-name="V" unicode="V" horiz-adv-x="538" 
d="M548 689l-234 -691h-94l-230 691h106l132 -415q16 -48 26 -91q10 -42 11 -52h6q2 9 14 52q10 35 28 92l135 414h100z" />
    <glyph glyph-name="W" unicode="W" horiz-adv-x="786" 
d="M786 689l-160 -691h-118l-76 347q-25 119 -35 199h-6q-13 -91 -35 -195l-74 -351h-119l-163 691h104l76 -355q7 -32 37 -218h6q22 134 38 209l80 364h111l79 -366q29 -129 36 -204h6q19 122 40 221l73 349h100z" />
    <glyph glyph-name="X" unicode="X" horiz-adv-x="538" 
d="M538 0h-117l-155 296l-149 -296h-117l208 371l-184 318h117l124 -234l118 234h115l-174 -312z" />
    <glyph glyph-name="Y" unicode="Y" horiz-adv-x="508" 
d="M523 689l-220 -415v-274h-100v276l-218 413h118l114 -235q24 -50 38 -89q20 47 40 88l116 236h112z" />
    <glyph glyph-name="Z" unicode="Z" horiz-adv-x="535" 
d="M485 80l-24 -80h-411v74l278 467q18 31 49 71q-30 -3 -79 -3h-236l23 80h396v-77l-275 -467q-8 -14 -23 -36t-20 -30q21 1 69 1h253z" />
    <glyph glyph-name="bracketleft" unicode="[" horiz-adv-x="280" 
d="M260 -155h-175v888h175v-65h-92v-759h92v-64z" />
    <glyph glyph-name="backslash" unicode="\" horiz-adv-x="394" 
d="M384 -19l-76 -27l-298 774l76 27z" />
    <glyph glyph-name="bracketright" unicode="]" horiz-adv-x="280" 
d="M195 -155h-175v64h92v759h-92v65h175v-888z" />
    <glyph glyph-name="asciicircum" unicode="^" horiz-adv-x="614" 
d="M554 300h-90l-157 320l-156 -320h-91l203 408h88z" />
    <glyph glyph-name="underscore" unicode="_" horiz-adv-x="500" 
d="M500 -125h-500v50h500v-50z" />
    <glyph glyph-name="grave" unicode="`" horiz-adv-x="335" 
d="M290 622l-28 -54l-217 102l44 85z" />
    <glyph glyph-name="a" unicode="a" horiz-adv-x="527" 
d="M517 0h-105l-51 140h-201l-51 -140h-99l200 538h111zM340 216l-78 242l-78 -242h156z" />
    <glyph glyph-name="b" unicode="b" horiz-adv-x="569" 
d="M504 150q0 -45 -26.5 -82t-70.5 -53q-43 -15 -125 -15h-187v537h172q77 0 119 -15t67.5 -47t25.5 -73q0 -43 -29 -74.5t-73 -42.5q54 -9 90.5 -45.5t36.5 -89.5zM377 387q0 70 -105 70h-83v-140h89q46 0 72.5 14.5t26.5 55.5zM399 158q0 82 -117 82h-92v-163h90
q119 0 119 81z" />
    <glyph glyph-name="c" unicode="c" horiz-adv-x="525" 
d="M490 40q-62 -48 -166 -48q-119 0 -189 74.5t-70 194.5q0 118 72.5 202t190.5 84q94 0 151 -43l-47 -64q-50 30 -103 30q-42 0 -77 -20t-54 -55q-27 -47 -27 -128q0 -56 9.5 -89.5t33.5 -60.5q46 -52 119 -52q54 0 111 34z" />
    <glyph glyph-name="d" unicode="d" horiz-adv-x="586" 
d="M521 268q0 -61 -17.5 -111t-45.5 -79.5t-55.5 -47t-55.5 -23.5q-32 -7 -96 -7h-156v537h120q101 0 152 -18q154 -53 154 -251zM416 261q0 94 -36.5 146.5t-125.5 52.5h-63v-382h74q151 0 151 183z" />
    <glyph glyph-name="e" unicode="e" horiz-adv-x="470" 
d="M440 0h-345v537h336l-13 -79h-227v-139h189v-78h-188v-159h248v-82z" />
    <glyph glyph-name="f" unicode="f" horiz-adv-x="415" 
d="M415 537l-12 -77h-213v-140h174v-77h-174v-243h-95v537h320z" />
    <glyph glyph-name="g" unicode="g" horiz-adv-x="599" 
d="M514 38q-77 -45 -181 -45q-126 0 -197 74t-71 201q0 126 69 201t192 75q100 0 178 -58l-48 -61q-64 43 -129 43q-105 0 -135 -76q-22 -57 -22 -130q0 -132 69 -172q44 -26 99 -26q46 0 80 17v134h-107l-14 78h217v-255z" />
    <glyph glyph-name="h" unicode="h" horiz-adv-x="596" 
d="M501 0h-96v245h-214v-245h-96v537h96v-214h214v214h96v-537z" />
    <glyph glyph-name="i" unicode="i" horiz-adv-x="287" 
d="M192 0h-97v537h97v-537z" />
    <glyph glyph-name="j" unicode="j" horiz-adv-x="287" 
d="M192 94q0 -67 -8 -95q-12 -40 -46.5 -70t-81.5 -46l-46 51q51 24 73 61q14 22 14 96v446h95v-443z" />
    <glyph glyph-name="k" unicode="k" horiz-adv-x="544" 
d="M524 0h-124l-207 285l202 252h120l-215 -249zM192 0h-97v537h97v-537z" />
    <glyph glyph-name="l" unicode="l" horiz-adv-x="418" 
d="M418 79l-15 -79h-308v537h97v-458h226z" />
    <glyph glyph-name="m" unicode="m" horiz-adv-x="744" 
d="M674 0h-95l-25 334l-5 120q-18 -75 -31 -117l-108 -337h-83l-103 335l-29 122q-4 -79 -7 -122l-25 -335h-93l55 537h127l92 -305l27 -119q17 79 29 118l93 306h128z" />
    <glyph glyph-name="n" unicode="n" horiz-adv-x="598" 
d="M503 0h-99l-151 268q-13 24 -32.5 64t-32.5 68l-13 27q10 -103 11 -170l4 -257h-95v537h108l154 -271q14 -24 31.5 -60t27.5 -60l11 -24q-12 101 -13 164l-3 251h92v-537z" />
    <glyph glyph-name="o" unicode="o" horiz-adv-x="630" 
d="M565 267q0 -127 -60.5 -201.5t-185.5 -74.5q-121 0 -187.5 77t-66.5 201q0 128 66.5 202t181.5 74q124 0 188 -76.5t64 -201.5zM457 260q0 35 -2.5 62t-11.5 56.5t-24.5 48t-42.5 31t-65 12.5q-78 0 -112 -56q-28 -47 -28 -139q0 -101 34 -161q29 -52 114 -52
q43 0 71.5 17t42.5 47.5t19 62t5 71.5z" />
    <glyph glyph-name="p" unicode="p" horiz-adv-x="519" 
d="M489 375q0 -81 -62 -129q-57 -44 -150 -44h-87v-202h-95v537h156q67 0 97.5 -6t57.5 -20q83 -46 83 -136zM383 369q0 53 -32.5 71.5t-90.5 18.5h-70v-181h85q108 0 108 91z" />
    <glyph glyph-name="q" unicode="q" horiz-adv-x="630" 
d="M660 -48l-28 -58q-26 -17 -100 5q-15 5 -87.5 46t-104.5 46q-4 0 -13 0.5t-14 0.5q-114 3 -175 71q-73 79 -73 206t67.5 201.5t181.5 74.5q123 0 187.5 -77t64.5 -201q0 -179 -116 -245q38 -14 58 -26q71 -39 96 -44q31 -7 56 0zM458 260q0 35 -3 62t-12 56t-24.5 48
t-43 31.5t-64.5 12.5q-139 0 -139 -195q0 -110 33 -161.5t114 -51.5q139 0 139 198z" />
    <glyph glyph-name="r" unicode="r" horiz-adv-x="524" 
d="M504 0h-116q-8 15 -26 43.5t-25 39.5q-61 97 -100 127q-21 17 -47 20v-230h-95v537h160q108 0 154 -33q61 -45 61 -120q0 -66 -40 -106.5t-109 -43.5q16 -10 27 -25q66 -85 76 -99q13 -18 33 -45.5t33 -45.5t14 -19zM371 381q0 79 -122 79h-59v-163h52q22 0 37.5 1t34 6
t30 13.5t19.5 24.5t8 39z" />
    <glyph glyph-name="s" unicode="s" horiz-adv-x="549" 
d="M489 163q0 -44 -24 -82t-66 -61q-58 -31 -141 -31q-108 0 -198 48l36 74q82 -44 167 -44q49 0 80 18q40 22 40 61q0 29 -22.5 47.5t-72.5 32.5l-76 20q-56 15 -94 52.5t-38 91.5q0 71 57.5 116t146.5 45q116 0 193 -53l-44 -69q-71 43 -145 43q-47 0 -75.5 -18.5
t-28.5 -50.5q0 -25 19.5 -41t65.5 -28l73 -19q147 -38 147 -152z" />
    <glyph glyph-name="t" unicode="t" horiz-adv-x="446" 
d="M436 537l-13 -79h-155v-458h-95v458h-153v79h416z" />
    <glyph glyph-name="u" unicode="u" horiz-adv-x="596" 
d="M506 191q0 -63 -10 -93t-38 -56q-56 -51 -160 -51q-141 0 -187 84q-21 37 -21 114v348h96v-330q0 -63 8 -82q22 -55 105 -55q64 0 90 34q20 27 20 91v342h97v-346z" />
    <glyph glyph-name="v" unicode="v" horiz-adv-x="502" 
d="M502 537l-209 -539h-89l-204 539h104l110 -303q8 -23 17.5 -55.5t14.5 -52.5l5 -21q18 75 37 126l115 306h99z" />
    <glyph glyph-name="w" unicode="w" horiz-adv-x="698" 
d="M698 537l-141 -540h-113l-60 245q-8 35 -17 80.5t-13 73.5l-5 28q-16 -106 -33 -178l-58 -249h-115l-143 540h102l62 -247q9 -36 18 -84.5t14 -79.5l4 -30q17 110 36 189l62 252h107l65 -269q7 -28 15 -70t13 -70l4 -28q18 113 36 187l61 250h99z" />
    <glyph glyph-name="x" unicode="x" horiz-adv-x="507" 
d="M497 0h-115l-130 216l-124 -216h-118l183 287l-161 250h115l102 -171l100 171h113l-154 -244z" />
    <glyph glyph-name="y" unicode="y" horiz-adv-x="484" 
d="M484 537l-194 -320v-217h-99v217l-191 320h117l95 -178l32 -74q15 43 32 74l97 178h111z" />
    <glyph glyph-name="z" unicode="z" horiz-adv-x="490" 
d="M440 78l-26 -78h-364v66l244 347l42 51q-42 -5 -71 -5h-206l24 78h352v-70l-240 -348l-41 -48q44 7 64 7h222z" />
    <glyph glyph-name="braceleft" unicode="{" horiz-adv-x="324" 
d="M304 -155h-80q-45 0 -77.5 34.5t-32.5 96.5v175q0 47 -30 73t-64 28v74q33 2 63.5 28.5t30.5 72.5v177q0 61 32.5 95t77.5 34h80v-74h-49q-35 0 -46.5 -20.5t-11.5 -55.5v-173q0 -58 -28.5 -85.5t-61.5 -32.5l-1 -7q34 -3 62.5 -29t28.5 -88v-172q0 -78 58 -78h49v-73z
" />
    <glyph glyph-name="bar" unicode="|" horiz-adv-x="251" 
d="M166 -207h-81v964h81v-964z" />
    <glyph glyph-name="braceright" unicode="}" horiz-adv-x="324" 
d="M304 252q-34 -2 -64 -28t-30 -73v-176q0 -62 -32.5 -96t-78.5 -34h-79v73h48q59 0 59 78v171q0 63 28 89t63 29v7q-35 6 -63 33t-28 85v173q0 76 -59 76h-48v74h80q44 0 77 -34.5t33 -95.5v-176q0 -46 30 -72.5t64 -28.5v-74z" />
    <glyph glyph-name="asciitilde" unicode="~" horiz-adv-x="572" 
d="M512 314q-25 -41 -52 -65t-69 -24q-33 0 -105 33q-4 2 -26 12.5t-31 14t-25 8t-29 4.5q-47 0 -85 -68l-30 66q25 41 52 64.5t69 23.5q32 0 104 -32q9 -4 27.5 -13t29 -13.5t26 -9t28.5 -4.5q28 0 47.5 18.5t38.5 50.5z" />
    <glyph glyph-name="uni00A0" unicode="&#xa0;" horiz-adv-x="250" 
 />
    <glyph glyph-name="sterling" unicode="&#xa3;" horiz-adv-x="580" 
d="M550 659l-67 -72q-48 45 -102 45q-126 0 -126 -160v-72h159v-74h-159v-241h248v-85h-453v85h103v241h-96v74h96v81q0 113 60.5 176t162.5 63q107 0 174 -61z" />
    <glyph glyph-name="section" unicode="&#xa7;" horiz-adv-x="555" 
d="M500 283q0 -85 -89 -132q67 -48 67 -124q0 -57 -33.5 -97.5t-81 -58t-101.5 -17.5q-153 0 -207 121l90 43q12 -40 45 -60t77 -20q41 0 71.5 20.5t30.5 60.5q0 23 -17.5 42.5t-31 27t-50.5 23.5q-7 3 -10 5q-69 31 -120 63q-69 44 -69 122q0 92 100 145q-76 44 -76 118
q0 77 59 119.5t138 42.5q61 0 112.5 -22.5t76.5 -72.5l-88 -49q-12 29 -40 44.5t-61 15.5q-38 0 -65.5 -19.5t-27.5 -57.5q0 -49 50 -72q6 -3 50 -23.5t50 -23.5q35 -17 54.5 -28.5t45.5 -31.5t38.5 -46t12.5 -58zM403 265q0 24 -15.5 44t-31.5 30.5t-42 22.5l-80 39
q-69 -30 -69 -79q0 -19 6.5 -34t21.5 -26.5t25 -17t31 -15.5l96 -46q25 12 41.5 34.5t16.5 47.5z" />
    <glyph glyph-name="dieresis" unicode="&#xa8;" horiz-adv-x="445" 
d="M385 632q0 -26 -17 -44.5t-41 -18.5q-25 0 -42 18.5t-17 44.5t17 44t42 18q23 0 40.5 -18.5t17.5 -43.5zM177 632q0 -26 -17 -44.5t-42 -18.5q-24 0 -41 18.5t-17 44.5t17 44t41 18t41.5 -18.5t17.5 -43.5z" />
    <glyph glyph-name="copyright" unicode="&#xa9;" horiz-adv-x="847" 
d="M792 355q0 -156 -108.5 -264t-260.5 -108t-260 108t-108 264t108 264t260 108t260.5 -108t108.5 -264zM720 355q0 131 -86.5 221t-210.5 90t-210 -90t-86 -221q0 -130 86 -221t210 -91q123 0 210 91t87 221zM541 178q-49 -37 -114 -37q-82 0 -131 60q-47 58 -47 148
q0 75 27 126q23 45 63.5 70.5t89.5 25.5q65 0 103 -33l-31 -45q-33 23 -71 23q-55 0 -83 -50q-22 -39 -22 -109q0 -67 17 -103q27 -59 92 -59q41 0 74 27z" />
    <glyph glyph-name="guillemotleft" unicode="&#xab;" horiz-adv-x="505" 
d="M465 65l-62 -42l-146 221l146 222l62 -43l-115 -179zM258 65l-62 -42l-146 221l146 222l62 -43l-115 -179z" />
    <glyph glyph-name="logicalnot" unicode="&#xac;" horiz-adv-x="519" 
d="M464 72h-91v140h-318v81h409v-221z" />
    <glyph glyph-name="registered" unicode="&#xae;" horiz-adv-x="847" 
d="M792 355q0 -156 -108.5 -264t-260.5 -108t-260 108t-108 264t108 264t260 108t260.5 -108t108.5 -264zM720 355q0 131 -86.5 221t-210.5 90t-210 -90t-86 -221q0 -130 86 -221t210 -91q123 0 210 91t87 221zM588 148h-82l-36 65q-38 69 -71 102q-12 12 -27 13v-180h-68
v416h127q66 0 100.5 -33.5t34.5 -85.5q0 -49 -28.5 -81.5t-74.5 -32.5q18 -9 64 -83zM494 444q0 64 -84 64h-38v-132h36q49 0 67 18q19 19 19 50z" />
    <glyph glyph-name="degree" unicode="&#xb0;" horiz-adv-x="408" 
d="M368 525q0 -77 -45.5 -122.5t-118.5 -45.5q-77 0 -120.5 45.5t-43.5 124.5q0 77 44.5 123t117.5 46q78 0 122 -45.5t44 -125.5zM291 521q0 64 -21.5 91t-66.5 27q-86 0 -86 -108q0 -64 21 -90.5t67 -26.5q86 0 86 107z" />
    <glyph glyph-name="paragraph" unicode="&#xb6;" horiz-adv-x="590" 
d="M505 -125h-71v772h-121v-772h-72v454q-94 0 -152.5 52t-58.5 131q0 96 60 146.5t166 50.5h249v-834z" />
    <glyph glyph-name="guillemotright" unicode="&#xbb;" horiz-adv-x="505" 
d="M455 244l-146 -221l-62 42l116 179l-116 179l62 43zM248 244l-146 -221l-62 42l117 179l-117 179l62 43z" />
    <glyph glyph-name="Aacute" unicode="&#xc1;" horiz-adv-x="568" 
d="M446 825l-217 -102l-29 54l201 133zM568 0h-108l-61 195h-239l-60 -195h-100l226 690h120zM378 275q-9 24 -47.5 156.5t-45.5 162.5h-6q-8 -31 -47 -163t-48 -156h194z" />
    <glyph glyph-name="Adieresis" unicode="&#xc4;" horiz-adv-x="568" 
d="M448 786q0 -25 -17 -42.5t-41 -17.5q-25 0 -42.5 17.5t-17.5 42.5q0 24 17 41t42 17q24 0 41.5 -17t17.5 -41zM240 786q0 -25 -17 -42.5t-41 -17.5q-25 0 -42 17.5t-17 42.5q0 24 17 41t41 17q25 0 42 -17t17 -41zM568 0h-108l-61 195h-239l-60 -195h-100l226 690h120z
M378 275q-9 24 -47.5 156.5t-45.5 162.5h-6q-8 -31 -47 -163t-48 -156h194z" />
    <glyph glyph-name="Eacute" unicode="&#xc9;" horiz-adv-x="511" 
d="M424 825l-217 -102l-29 54l201 133zM481 0h-386v689h375l-13 -79h-265v-210h222v-81h-221v-236h288v-83z" />
    <glyph glyph-name="Iacute" unicode="&#xcd;" horiz-adv-x="288" 
d="M309 829l-217 -102l-29 54l201 133zM193 0h-98v689h98v-689z" />
    <glyph glyph-name="Oacute" unicode="&#xd3;" 
d="M481 829l-217 -102l-29 54l201 133zM627 340q0 -160 -74 -255.5t-204 -95.5q-138 0 -211 98.5t-73 259.5q0 168 75 261t204 93q74 0 129.5 -29t88.5 -80t49 -114.5t16 -137.5zM517 331q0 147 -39.5 221t-133.5 74q-90 0 -130.5 -66t-40.5 -202q0 -142 40 -219t136 -77
q168 0 168 269z" />
    <glyph glyph-name="Ocircumflex" unicode="&#xd4;" 
d="M517 769l-36 -51l-138 86l-134 -86l-32 51l169 138zM627 340q0 -160 -74 -255.5t-204 -95.5q-138 0 -211 98.5t-73 259.5q0 168 75 261t204 93q74 0 129.5 -29t88.5 -80t49 -114.5t16 -137.5zM517 331q0 147 -39.5 221t-133.5 74q-90 0 -130.5 -66t-40.5 -202
q0 -142 40 -219t136 -77q168 0 168 269z" />
    <glyph glyph-name="Otilde" unicode="&#xd5;" 
d="M512 813q-27 -34 -52.5 -50t-65.5 -16q-31 0 -65.5 21t-63.5 21q-21 0 -34.5 -9t-31.5 -29l-31 52q26 34 51.5 49.5t65.5 15.5q31 0 65.5 -20.5t63.5 -20.5q21 0 35 9t32 29zM627 340q0 -160 -74 -255.5t-204 -95.5q-138 0 -211 98.5t-73 259.5q0 168 75 261t204 93
q74 0 129.5 -29t88.5 -80t49 -114.5t16 -137.5zM517 331q0 147 -39.5 221t-133.5 74q-90 0 -130.5 -66t-40.5 -202q0 -142 40 -219t136 -77q168 0 168 269z" />
    <glyph glyph-name="Odieresis" unicode="&#xd6;" 
d="M507 786q0 -25 -17 -42.5t-41 -17.5q-25 0 -42.5 17.5t-17.5 42.5q0 24 17 41t42 17q24 0 41.5 -17t17.5 -41zM299 786q0 -25 -17 -42.5t-41 -17.5q-25 0 -42 17.5t-17 42.5q0 24 17 41t41 17q25 0 42 -17t17 -41zM627 340q0 -160 -74 -255.5t-204 -95.5
q-138 0 -211 98.5t-73 259.5q0 168 75 261t204 93q74 0 129.5 -29t88.5 -80t49 -114.5t16 -137.5zM517 331q0 147 -39.5 221t-133.5 74q-90 0 -130.5 -66t-40.5 -202q0 -142 40 -219t136 -77q168 0 168 269z" />
    <glyph glyph-name="Uacute" unicode="&#xda;" horiz-adv-x="644" 
d="M454 825l-217 -102l-29 54l201 133zM554 216q0 -65 -6.5 -91.5t-29.5 -54.5q-66 -81 -198 -81q-155 0 -208 96q-14 24 -18 47t-4 76v481h97v-445q0 -105 25 -134q34 -39 109 -39q78 0 112 45q25 32 25 114v459h96v-473z" />
    <glyph glyph-name="Udieresis" unicode="&#xdc;" horiz-adv-x="644" 
d="M486 786q0 -25 -17 -42.5t-41 -17.5q-25 0 -42.5 17.5t-17.5 42.5q0 24 17 41t42 17q24 0 41.5 -17t17.5 -41zM278 786q0 -25 -17 -42.5t-41 -17.5q-25 0 -42 17.5t-17 42.5q0 24 17 41t41 17q25 0 42 -17t17 -41zM554 216q0 -65 -6.5 -91.5t-29.5 -54.5
q-66 -81 -198 -81q-155 0 -208 96q-14 24 -18 47t-4 76v481h97v-445q0 -105 25 -134q34 -39 109 -39q78 0 112 45q25 32 25 114v459h96v-473z" />
    <glyph glyph-name="Yacute" unicode="&#xdd;" horiz-adv-x="508" 
d="M403 829l-217 -102l-29 54l201 133zM523 689l-220 -415v-274h-100v276l-218 413h118l114 -235q24 -50 38 -89q20 47 40 88l116 236h112z" />
    <glyph glyph-name="germandbls" unicode="&#xdf;" horiz-adv-x="1088" 
d="M1028 163q0 -44 -24 -82t-66 -61q-58 -31 -141 -31q-108 0 -198 48l36 74q82 -44 167 -44q48 0 80 18q40 22 40 61q0 29 -22.5 47.5t-72.5 32.5l-76 20q-56 15 -94 52.5t-38 91.5q0 71 57.5 116t146.5 45q116 0 193 -53l-44 -69q-71 43 -145 43q-47 0 -75.5 -18.5
t-28.5 -50.5q0 -25 19.5 -41t65.5 -28l73 -19q147 -38 147 -152zM489 163q0 -44 -24 -82t-66 -61q-58 -31 -141 -31q-108 0 -198 48l36 74q82 -44 167 -44q49 0 80 18q40 22 40 61q0 29 -22.5 47.5t-72.5 32.5l-76 20q-56 15 -94 52.5t-38 91.5q0 71 57.5 116t146.5 45
q116 0 193 -53l-44 -69q-71 43 -145 43q-47 0 -75.5 -18.5t-28.5 -50.5q0 -25 19.5 -41t65.5 -28l73 -19q147 -38 147 -152z" />
    <glyph glyph-name="aacute" unicode="&#xe1;" horiz-adv-x="527" 
d="M427 665l-217 -102l-29 54l201 133zM517 0h-105l-51 140h-201l-51 -140h-99l200 538h111zM340 216l-78 242l-78 -242h156z" />
    <glyph glyph-name="adieresis" unicode="&#xe4;" horiz-adv-x="527" 
d="M428 627q0 -25 -17 -42.5t-41 -17.5q-25 0 -42.5 17.5t-17.5 42.5q0 24 17.5 41t42.5 17q24 0 41 -17t17 -41zM221 627q0 -25 -16.5 -42.5t-41.5 -17.5t-42 17.5t-17 42.5q0 24 17.5 41t41.5 17t41 -17t17 -41zM517 0h-105l-51 140h-201l-51 -140h-99l200 538h111z
M340 216l-78 242l-78 -242h156z" />
    <glyph glyph-name="eacute" unicode="&#xe9;" horiz-adv-x="470" 
d="M391 665l-217 -102l-29 54l201 133zM440 0h-345v537h336l-13 -79h-227v-139h189v-78h-188v-159h248v-82z" />
    <glyph glyph-name="iacute" unicode="&#xed;" horiz-adv-x="287" 
d="M312 665l-217 -102l-29 54l201 133zM192 0h-97v537h97v-537z" />
    <glyph glyph-name="oacute" unicode="&#xf3;" horiz-adv-x="630" 
d="M441 665l-217 -102l-29 54l201 133zM565 267q0 -127 -60.5 -201.5t-185.5 -74.5q-121 0 -187.5 77t-66.5 201q0 128 66.5 202t181.5 74q124 0 188 -76.5t64 -201.5zM457 260q0 35 -2.5 62t-11.5 56.5t-24.5 48t-42.5 31t-65 12.5q-78 0 -112 -56q-28 -47 -28 -139
q0 -101 34 -161q29 -52 114 -52q43 0 71.5 17t42.5 47.5t19 62t5 71.5z" />
    <glyph glyph-name="ocircumflex" unicode="&#xf4;" horiz-adv-x="630" 
d="M485 609l-36 -51l-138 86l-134 -86l-32 51l169 138zM565 267q0 -127 -60.5 -201.5t-185.5 -74.5q-121 0 -187.5 77t-66.5 201q0 128 66.5 202t181.5 74q124 0 188 -76.5t64 -201.5zM457 260q0 35 -2.5 62t-11.5 56.5t-24.5 48t-42.5 31t-65 12.5q-78 0 -112 -56
q-28 -47 -28 -139q0 -101 34 -161q29 -52 114 -52q43 0 71.5 17t42.5 47.5t19 62t5 71.5z" />
    <glyph glyph-name="otilde" unicode="&#xf5;" horiz-adv-x="630" 
d="M484 653q-27 -34 -52.5 -50t-65.5 -16q-31 0 -65.5 21t-63.5 21q-21 0 -34.5 -9t-31.5 -29l-31 52q26 34 51.5 49.5t65.5 15.5q31 0 65.5 -20.5t63.5 -20.5q21 0 35 9t32 29zM565 267q0 -127 -60.5 -201.5t-185.5 -74.5q-121 0 -187.5 77t-66.5 201q0 128 66.5 202
t181.5 74q124 0 188 -76.5t64 -201.5zM457 260q0 35 -2.5 62t-11.5 56.5t-24.5 48t-42.5 31t-65 12.5q-78 0 -112 -56q-28 -47 -28 -139q0 -101 34 -161q29 -52 114 -52q43 0 71.5 17t42.5 47.5t19 62t5 71.5z" />
    <glyph glyph-name="odieresis" unicode="&#xf6;" horiz-adv-x="630" 
d="M474 630q0 -26 -17 -44.5t-41 -18.5q-25 0 -42 18.5t-17 44.5t17 44t42 18q23 0 40.5 -18.5t17.5 -43.5zM267 630q0 -26 -17 -44.5t-42 -18.5q-24 0 -41 18.5t-17 44.5t17 44t41 18t41.5 -18.5t17.5 -43.5zM565 267q0 -127 -60.5 -201.5t-185.5 -74.5q-121 0 -187.5 77
t-66.5 201q0 128 66.5 202t181.5 74q124 0 188 -76.5t64 -201.5zM457 260q0 35 -2.5 62t-11.5 56.5t-24.5 48t-42.5 31t-65 12.5q-78 0 -112 -56q-28 -47 -28 -139q0 -101 34 -161q29 -52 114 -52q43 0 71.5 17t42.5 47.5t19 62t5 71.5z" />
    <glyph glyph-name="divide" unicode="&#xf7;" horiz-adv-x="605" 
d="M371 475q0 -31 -21 -52t-50 -21t-49.5 20.5t-20.5 50.5t20.5 51.5t50.5 21.5q29 0 49.5 -21t20.5 -50zM555 225h-505v83h505v-83zM371 59q0 -30 -21 -50.5t-51 -20.5q-29 0 -49 20.5t-20 50.5q0 31 20.5 52.5t50.5 21.5q29 0 49.5 -21.5t20.5 -52.5z" />
    <glyph glyph-name="uacute" unicode="&#xfa;" horiz-adv-x="596" 
d="M422 665l-217 -102l-29 54l201 133zM506 191q0 -63 -10 -93t-38 -56q-56 -51 -160 -51q-141 0 -187 84q-21 37 -21 114v348h96v-330q0 -63 8 -82q22 -55 105 -55q64 0 90 34q20 27 20 91v342h97v-346z" />
    <glyph glyph-name="udieresis" unicode="&#xfc;" horiz-adv-x="596" 
d="M461 630q0 -26 -17 -44.5t-41 -18.5q-25 0 -42 18.5t-17 44.5t17 44t42 18q23 0 40.5 -18.5t17.5 -43.5zM253 630q0 -26 -17 -44.5t-42 -18.5q-24 0 -41 18.5t-17 44.5t17 44t41 18t41.5 -18.5t17.5 -43.5zM506 191q0 -63 -10 -93t-38 -56q-56 -51 -160 -51
q-141 0 -187 84q-21 37 -21 114v348h96v-330q0 -63 8 -82q22 -55 105 -55q64 0 90 34q20 27 20 91v342h97v-346z" />
    <glyph glyph-name="yacute" unicode="&#xfd;" horiz-adv-x="484" 
d="M388 665l-217 -102l-29 54l201 133zM484 537l-194 -320v-217h-99v217l-191 320h117l95 -178l32 -74q15 43 32 74l97 178h111z" />
    <glyph glyph-name="Amacron" unicode="&#x100;" horiz-adv-x="568" 
d="M420 752h-281v68h281v-68zM568 0h-108l-61 195h-239l-60 -195h-100l226 690h120zM378 275q-9 24 -47.5 156.5t-45.5 162.5h-6q-8 -31 -47 -163t-48 -156h194z" />
    <glyph glyph-name="amacron" unicode="&#x101;" horiz-adv-x="527" 
d="M394 600h-261v68h261v-68zM517 0h-105l-51 140h-201l-51 -140h-99l200 538h111zM340 216l-78 242l-78 -242h156z" />
    <glyph glyph-name="Aogonek" unicode="&#x104;" horiz-adv-x="568" 
d="M593 -173q-48 -25 -90 -25q-46 0 -72.5 25t-26.5 63q0 52 56 110l-61 195h-239l-60 -195h-100l226 690h120l222 -690h-2q-28 0 -59.5 -33.5t-30.5 -68.5q2 -33 35 -33q31 0 59 14zM378 275q-9 24 -47.5 156.5t-45.5 162.5h-6q-8 -31 -47 -163t-48 -156h194z" />
    <glyph glyph-name="aogonek" unicode="&#x105;" horiz-adv-x="527" 
d="M545 -173q-48 -25 -90 -25q-46 0 -72.5 25t-26.5 63q0 52 56 110l-51 140h-201l-51 -140h-99l200 538h111l196 -538q-27 0 -58.5 -34t-30.5 -68q2 -33 35 -33q31 0 59 14zM340 216l-78 242l-78 -242h156z" />
    <glyph glyph-name="Cacute" unicode="&#x106;" horiz-adv-x="590" 
d="M492 825l-217 -102l-29 54l201 133zM540 47q-79 -57 -186 -57q-133 0 -214 103q-75 96 -75 246q0 118 45 205q39 74 104 116t144 42q103 0 169 -54l-47 -63q-54 40 -122 40q-104 0 -153 -99q-33 -66 -33 -185q0 -103 25 -162q23 -55 67.5 -83.5t101.5 -28.5q72 0 127 43z
" />
    <glyph glyph-name="cacute" unicode="&#x107;" horiz-adv-x="525" 
d="M440 670l-217 -102l-29 54l201 133zM490 40q-62 -48 -166 -48q-119 0 -189 74.5t-70 194.5q0 118 72.5 202t190.5 84q94 0 151 -43l-47 -64q-50 30 -103 30q-42 0 -77 -20t-54 -55q-27 -47 -27 -128q0 -56 9.5 -89.5t33.5 -60.5q46 -52 119 -52q54 0 111 34z" />
    <glyph glyph-name="Ccaron" unicode="&#x10c;" horiz-adv-x="590" 
d="M516 862l-169 -139l-171 139l36 50l139 -84l133 84zM540 47q-79 -57 -186 -57q-133 0 -214 103q-75 96 -75 246q0 118 45 205q39 74 104 116t144 42q103 0 169 -54l-47 -63q-54 40 -122 40q-104 0 -153 -99q-33 -66 -33 -185q0 -103 25 -162q23 -55 67.5 -83.5
t101.5 -28.5q72 0 127 43z" />
    <glyph glyph-name="ccaron" unicode="&#x10d;" horiz-adv-x="525" 
d="M485 701l-169 -139l-171 139l36 50l139 -84l133 84zM490 40q-62 -48 -166 -48q-119 0 -189 74.5t-70 194.5q0 118 72.5 202t190.5 84q94 0 151 -43l-47 -64q-50 30 -103 30q-42 0 -77 -20t-54 -55q-27 -47 -27 -128q0 -56 9.5 -89.5t33.5 -60.5q46 -52 119 -52
q54 0 111 34z" />
    <glyph glyph-name="Dcaron" unicode="&#x10e;" horiz-adv-x="639" 
d="M463 862l-169 -139l-171 139l36 50l139 -84l133 84zM574 344q0 -158 -75 -251q-38 -47 -91.5 -70t-140.5 -23h-172v689h160q92 0 152 -25.5t106 -88.5q61 -85 61 -231zM467 332q0 154 -51 219q-28 35 -60.5 48t-84.5 13h-78v-533h76q118 0 161 77q37 68 37 176z" />
    <glyph glyph-name="dcaron" unicode="&#x10f;" horiz-adv-x="586" 
d="M445 701l-169 -139l-171 139l36 50l139 -84l133 84zM521 268q0 -61 -17.5 -111t-45.5 -79.5t-55.5 -47t-55.5 -23.5q-32 -7 -96 -7h-156v537h120q101 0 152 -18q154 -53 154 -251zM416 261q0 94 -36.5 146.5t-125.5 52.5h-63v-382h74q151 0 151 183z" />
    <glyph glyph-name="Emacron" unicode="&#x112;" horiz-adv-x="511" 
d="M424 752h-281v68h281v-68zM481 0h-386v689h375l-13 -79h-265v-210h222v-81h-221v-236h288v-83z" />
    <glyph glyph-name="emacron" unicode="&#x113;" horiz-adv-x="470" 
d="M393 600h-261v68h261v-68zM440 0h-345v537h336l-13 -79h-227v-139h189v-78h-188v-159h248v-82z" />
    <glyph glyph-name="Edotaccent" unicode="&#x116;" horiz-adv-x="511" 
d="M349 797q0 -27 -19.5 -46.5t-47.5 -19.5q-27 0 -45.5 19.5t-18.5 46.5q0 28 19 47.5t46 19.5t46.5 -19.5t19.5 -47.5zM481 0h-386v689h375l-13 -79h-265v-210h222v-81h-221v-236h288v-83z" />
    <glyph glyph-name="edotaccent" unicode="&#x117;" horiz-adv-x="470" 
d="M329 647q0 -27 -19.5 -46.5t-47.5 -19.5q-27 0 -45.5 19.5t-18.5 46.5q0 28 19 47.5t46 19.5t46.5 -19.5t19.5 -47.5zM440 0h-345v537h336l-13 -79h-227v-139h189v-78h-188v-159h248v-82z" />
    <glyph glyph-name="Eogonek" unicode="&#x118;" horiz-adv-x="511" 
d="M508 -173q-48 -25 -90 -25q-46 0 -72.5 25t-26.5 63q0 52 56 110h-280v689h375l-13 -79h-265v-210h222v-81h-221v-236h288v-83q-28 0 -59.5 -33.5t-30.5 -68.5q2 -33 35 -33q31 0 59 14z" />
    <glyph glyph-name="eogonek" unicode="&#x119;" horiz-adv-x="470" 
d="M467 -173q-48 -25 -90 -25q-46 0 -72.5 25t-26.5 63q0 52 56 110h-239v537h336l-13 -79h-227v-139h189v-78h-188v-159h248v-82q-28 0 -59.5 -33.5t-30.5 -68.5q2 -33 35 -33q31 0 59 14z" />
    <glyph glyph-name="Ecaron" unicode="&#x11a;" horiz-adv-x="511" 
d="M454 862l-169 -139l-171 139l36 50l139 -84l133 84zM481 0h-386v689h375l-13 -79h-265v-210h222v-81h-221v-236h288v-83z" />
    <glyph glyph-name="ecaron" unicode="&#x11b;" horiz-adv-x="470" 
d="M434 701l-169 -139l-171 139l36 50l139 -84l133 84zM440 0h-345v537h336l-13 -79h-227v-139h189v-78h-188v-159h248v-82z" />
    <glyph glyph-name="Gcommaaccent" unicode="&#x122;" horiz-adv-x="657" 
d="M567 45q-88 -55 -204 -55q-139 0 -218 93q-80 93 -80 258q0 200 119 298q72 59 173 59q116 0 195 -69l-46 -60q-72 52 -147 52q-105 0 -148 -88q-23 -47 -30.5 -89.5t-7.5 -107.5q0 -144 49 -208q22 -29 62.5 -45.5t85.5 -16.5q57 0 102 26v196h-127l-16 79h238v-322z
M419 -137q0 -43 -32 -85q-25 -33 -72 -55l-28 37q50 21 55 67q0 3 -12 5q-18 3 -29.5 17.5t-11.5 34.5q0 26 17.5 43.5t43.5 17.5q31 0 50 -23t19 -59z" />
    <glyph glyph-name="gcommaaccent" unicode="&#x123;" horiz-adv-x="599" 
d="M514 38q-77 -45 -181 -45q-126 0 -197 74t-71 201q0 126 69 201t192 75q100 0 178 -58l-48 -61q-64 43 -129 43q-105 0 -135 -76q-22 -57 -22 -130q0 -132 69 -172q44 -26 99 -26q46 0 80 17v134h-107l-14 78h217v-255zM386 -137q0 -43 -32 -85q-25 -33 -72 -55l-28 37
q50 21 55 67q0 3 -12 5q-18 3 -29.5 17.5t-11.5 34.5q0 26 18 43.5t43 17.5q31 0 50 -23t19 -59z" />
    <glyph glyph-name="Imacron" unicode="&#x12a;" horiz-adv-x="288" 
d="M285 752h-281v68h281v-68zM193 0h-98v689h98v-689z" />
    <glyph glyph-name="imacron" unicode="&#x12b;" horiz-adv-x="287" 
d="M271 600h-261v68h261v-68zM192 0h-97v537h97v-537z" />
    <glyph glyph-name="Iogonek" unicode="&#x12e;" horiz-adv-x="288" 
d="M193 0h-98v689h98v-689zM228 -173q-48 -25 -90 -25q-46 0 -72.5 25t-26.5 63q0 52 56 110h98q-24 -3 -53.5 -36t-28.5 -66q2 -33 35 -33q31 0 59 14z" />
    <glyph glyph-name="iogonek" unicode="&#x12f;" horiz-adv-x="287" 
d="M228 -173q-48 -25 -90 -25q-46 0 -72.5 25t-26.5 63q0 52 56 110v537h97v-537q-23 -3 -52.5 -36t-28.5 -66q2 -33 35 -33q31 0 59 14z" />
    <glyph glyph-name="Kcommaaccent" unicode="&#x136;" horiz-adv-x="588" 
d="M568 0h-125l-246 368l241 321h121l-252 -320zM193 0h-98v689h98v-689zM371 -137q0 -43 -32 -85q-25 -33 -73 -55l-28 37q51 22 56 67q0 3 -13 5q-18 3 -29.5 17.5t-11.5 34.5q0 26 18 43.5t43 17.5q31 0 50.5 -23t19.5 -59z" />
    <glyph glyph-name="kcommaaccent" unicode="&#x137;" horiz-adv-x="544" 
d="M524 0h-124l-207 285l202 252h120l-215 -249zM192 0h-97v537h97v-537zM356 -137q0 -43 -32 -85q-25 -33 -72 -55l-28 37q50 21 55 67q0 3 -12 5q-18 3 -29.5 17.5t-11.5 34.5q0 26 18 43.5t43 17.5q31 0 50 -23t19 -59z" />
    <glyph glyph-name="Lacute" unicode="&#x139;" horiz-adv-x="465" 
d="M308 825l-217 -102l-29 54l201 133zM455 80l-16 -80h-344v689h98v-609h262z" />
    <glyph glyph-name="lacute" unicode="&#x13a;" horiz-adv-x="418" 
d="M308 670l-217 -102l-29 54l201 133zM418 79l-15 -79h-308v537h97v-458h226z" />
    <glyph glyph-name="Lcommaaccent" unicode="&#x13b;" horiz-adv-x="465" 
d="M455 80l-16 -80h-344v689h98v-609h262zM333 -137q0 -43 -32 -85q-25 -33 -73 -55l-27 37q50 21 55 67q0 3 -13 5q-17 3 -28.5 17.5t-11.5 34.5q0 26 17.5 43.5t42.5 17.5q31 0 50.5 -23t19.5 -59z" />
    <glyph glyph-name="lcommaaccent" unicode="&#x13c;" horiz-adv-x="418" 
d="M418 79l-15 -79h-308v537h97v-458h226zM313 -137q0 -43 -32 -85q-25 -33 -72 -55l-28 37q50 21 55 67q0 3 -12 5q-18 3 -29.5 17.5t-11.5 34.5q0 26 17.5 43.5t43.5 17.5q31 0 50 -23t19 -59z" />
    <glyph glyph-name="Lcaron" unicode="&#x13d;" horiz-adv-x="465" 
d="M421 608q0 -44 -31 -84q-25 -33 -73 -55l-28 37q51 22 56 67q0 2 -13 4q-17 3 -29 18t-12 35q0 25 17.5 42.5t43.5 17.5q31 0 50 -23t19 -59zM455 80l-16 -80h-344v689h98v-609h262z" />
    <glyph glyph-name="lcaron" unicode="&#x13e;" horiz-adv-x="418" 
d="M400 450q0 -43 -32 -85q-25 -33 -72 -55l-28 37q50 21 55 67q0 4 -12 5q-18 3 -29.5 17.5t-11.5 34.5q0 25 18 43t43 18q31 0 50 -23t19 -59zM418 79l-15 -79h-308v537h97v-458h226z" />
    <glyph glyph-name="Lslash" unicode="&#x141;" horiz-adv-x="465" 
d="M455 80l-16 -80h-344v302l-65 -21v82l65 21v305h98v-274l164 53v-82l-164 -53v-253h262z" />
    <glyph glyph-name="lslash" unicode="&#x142;" horiz-adv-x="418" 
d="M418 79l-15 -79h-308v228l-55 -18v82l55 18v227h97v-196l145 46v-82l-145 -46v-180h226z" />
    <glyph glyph-name="Nacute" unicode="&#x143;" horiz-adv-x="649" 
d="M461 825l-217 -102l-29 54l201 133zM554 0h-103l-181 366q-66 134 -84 189l-6 -1q6 -72 8 -192l4 -362h-97v689h112l192 -380q20 -39 41.5 -93.5t26.5 -71.5l6 2q-10 100 -10 205l-2 338h93v-689z" />
    <glyph glyph-name="nacute" unicode="&#x144;" horiz-adv-x="598" 
d="M433 670l-217 -102l-29 54l201 133zM503 0h-99l-151 268q-13 24 -32.5 64t-32.5 68l-13 27q10 -103 11 -170l4 -257h-95v537h108l154 -271q14 -24 31.5 -60t27.5 -60l11 -24q-12 101 -13 164l-3 251h92v-537z" />
    <glyph glyph-name="Ncommaaccent" unicode="&#x145;" horiz-adv-x="649" 
d="M554 0h-103l-181 366q-66 134 -84 189l-6 -1q6 -72 8 -192l4 -362h-97v689h112l192 -380q20 -39 41.5 -93.5t26.5 -71.5l6 2q-10 100 -10 205l-2 338h93v-689zM388 -137q0 -43 -32 -85q-25 -33 -73 -55l-28 37q51 22 56 67q0 3 -13 5q-18 3 -29.5 17.5t-11.5 34.5
q0 26 17.5 43.5t43.5 17.5q31 0 50.5 -23t19.5 -59z" />
    <glyph glyph-name="ncommaaccent" unicode="&#x146;" horiz-adv-x="598" 
d="M503 0h-99l-151 268q-13 24 -32.5 64t-32.5 68l-13 27q10 -103 11 -170l4 -257h-95v537h108l154 -271q14 -24 31.5 -60t27.5 -60l11 -24q-12 101 -13 164l-3 251h92v-537zM367 -137q0 -43 -32 -85q-25 -33 -72 -55l-28 37q50 21 55 67q0 3 -12 5q-18 3 -29.5 17.5
t-11.5 34.5q0 26 17.5 43.5t43.5 17.5q31 0 50 -23t19 -59z" />
    <glyph glyph-name="Ncaron" unicode="&#x147;" horiz-adv-x="649" 
d="M493 862l-169 -139l-171 139l36 50l139 -84l133 84zM554 0h-103l-181 366q-66 134 -84 189l-6 -1q6 -72 8 -192l4 -362h-97v689h112l192 -380q20 -39 41.5 -93.5t26.5 -71.5l6 2q-10 100 -10 205l-2 338h93v-689z" />
    <glyph glyph-name="ncaron" unicode="&#x148;" horiz-adv-x="598" 
d="M468 701l-169 -139l-171 139l36 50l139 -84l133 84zM503 0h-99l-151 268q-13 24 -32.5 64t-32.5 68l-13 27q10 -103 11 -170l4 -257h-95v537h108l154 -271q14 -24 31.5 -60t27.5 -60l11 -24q-12 101 -13 164l-3 251h92v-537z" />
    <glyph glyph-name="Omacron" unicode="&#x14c;" 
d="M486 752h-281v68h281v-68zM627 340q0 -160 -74 -255.5t-204 -95.5q-138 0 -211 98.5t-73 259.5q0 168 75 261t204 93q74 0 129.5 -29t88.5 -80t49 -114.5t16 -137.5zM517 331q0 147 -39.5 221t-133.5 74q-90 0 -130.5 -66t-40.5 -202q0 -142 40 -219t136 -77
q168 0 168 269z" />
    <glyph glyph-name="omacron" unicode="&#x14d;" horiz-adv-x="630" 
d="M448 600h-261v68h261v-68zM565 267q0 -127 -60.5 -201.5t-185.5 -74.5q-121 0 -187.5 77t-66.5 201q0 128 66.5 202t181.5 74q124 0 188 -76.5t64 -201.5zM457 260q0 35 -2.5 62t-11.5 56.5t-24.5 48t-42.5 31t-65 12.5q-78 0 -112 -56q-28 -47 -28 -139q0 -101 34 -161
q29 -52 114 -52q43 0 71.5 17t42.5 47.5t19 62t5 71.5z" />
    <glyph glyph-name="Ohungarumlaut" unicode="&#x150;" 
d="M638 877l-179 -150l-41 42l153 173zM420 905l-151 -182l-49 35l123 198zM627 340q0 -160 -74 -255.5t-204 -95.5q-138 0 -211 98.5t-73 259.5q0 168 75 261t204 93q74 0 129.5 -29t88.5 -80t49 -114.5t16 -137.5zM517 331q0 147 -39.5 221t-133.5 74q-90 0 -130.5 -66
t-40.5 -202q0 -142 40 -219t136 -77q168 0 168 269z" />
    <glyph glyph-name="ohungarumlaut" unicode="&#x151;" horiz-adv-x="630" 
d="M561 756l-147 -181l-48 33l117 199zM357 776l-113 -207l-55 25l83 218zM565 267q0 -127 -60.5 -201.5t-185.5 -74.5q-121 0 -187.5 77t-66.5 201q0 128 66.5 202t181.5 74q124 0 188 -76.5t64 -201.5zM457 260q0 35 -2.5 62t-11.5 56.5t-24.5 48t-42.5 31t-65 12.5
q-78 0 -112 -56q-28 -47 -28 -139q0 -101 34 -161q29 -52 114 -52q43 0 71.5 17t42.5 47.5t19 62t5 71.5z" />
    <glyph glyph-name="Racute" unicode="&#x154;" horiz-adv-x="576" 
d="M424 825l-217 -102l-29 54l201 133zM546 0h-117q-23 45 -57 102q-71 119 -119 172q-27 30 -62 31v-305h-96v689h193q110 0 163 -50q61 -57 61 -142q0 -83 -50 -137.5t-134 -51.5q31 -25 60 -64q28 -38 58 -85q17 -27 56.5 -89.5t43.5 -69.5zM411 496q0 35 -17.5 62.5
t-46.5 38.5q-33 13 -84 13h-72v-240h67q85 0 119 33q34 32 34 93z" />
    <glyph glyph-name="racute" unicode="&#x155;" horiz-adv-x="524" 
d="M401 670l-217 -102l-29 54l201 133zM504 0h-116q-8 15 -26 43.5t-25 39.5q-61 97 -100 127q-21 17 -47 20v-230h-95v537h160q108 0 154 -33q61 -45 61 -120q0 -66 -40 -106.5t-109 -43.5q16 -10 27 -25q66 -85 76 -99q13 -18 33 -45.5t33 -45.5t14 -19zM371 381
q0 79 -122 79h-59v-163h52q22 0 37.5 1t34 6t30 13.5t19.5 24.5t8 39z" />
    <glyph glyph-name="Rcommaaccent" unicode="&#x156;" horiz-adv-x="576" 
d="M546 0h-117q-23 45 -57 102q-71 119 -119 172q-27 30 -62 31v-305h-96v689h193q110 0 163 -50q61 -57 61 -142q0 -83 -50 -137.5t-134 -51.5q31 -25 60 -64q28 -38 58 -85q17 -27 56.5 -89.5t43.5 -69.5zM369 -137q0 -45 -31 -85q-25 -33 -73 -55l-28 37q51 22 56 67
q0 3 -13 5q-18 3 -29.5 17.5t-11.5 34.5q0 26 17.5 43.5t43.5 17.5q31 0 50 -23t19 -59zM411 496q0 35 -17.5 62.5t-46.5 38.5q-33 13 -84 13h-72v-240h67q85 0 119 33q34 32 34 93z" />
    <glyph glyph-name="rcommaaccent" unicode="&#x157;" horiz-adv-x="524" 
d="M504 0h-116q-8 15 -26 43.5t-25 39.5q-61 97 -100 127q-21 17 -47 20v-230h-95v537h160q108 0 154 -33q61 -45 61 -120q0 -66 -40 -106.5t-109 -43.5q16 -10 27 -25q66 -85 76 -99q13 -18 33 -45.5t33 -45.5t14 -19zM347 -139q0 -43 -32 -85q-25 -33 -72 -55l-28 37
q50 21 55 67q0 3 -12 5q-18 3 -29.5 17.5t-11.5 34.5q0 26 17.5 43.5t43.5 17.5q31 0 50 -23t19 -59zM371 381q0 79 -122 79h-59v-163h52q22 0 37.5 1t34 6t30 13.5t19.5 24.5t8 39z" />
    <glyph glyph-name="Rcaron" unicode="&#x158;" horiz-adv-x="576" 
d="M447 862l-169 -139l-171 139l36 50l139 -84l133 84zM546 0h-117q-23 45 -57 102q-71 119 -119 172q-27 30 -62 31v-305h-96v689h193q110 0 163 -50q61 -57 61 -142q0 -83 -50 -137.5t-134 -51.5q31 -25 60 -64q28 -38 58 -85q17 -27 56.5 -89.5t43.5 -69.5zM411 496
q0 35 -17.5 62.5t-46.5 38.5q-33 13 -84 13h-72v-240h67q85 0 119 33q34 32 34 93z" />
    <glyph glyph-name="rcaron" unicode="&#x159;" horiz-adv-x="524" 
d="M432 701l-169 -139l-171 139l36 50l139 -84l133 84zM504 0h-116q-8 15 -26 43.5t-25 39.5q-61 97 -100 127q-21 17 -47 20v-230h-95v537h160q108 0 154 -33q61 -45 61 -120q0 -66 -40 -106.5t-109 -43.5q16 -10 27 -25q66 -85 76 -99q13 -18 33 -45.5t33 -45.5t14 -19z
M371 381q0 79 -122 79h-59v-163h52q22 0 37.5 1t34 6t30 13.5t19.5 24.5t8 39z" />
    <glyph glyph-name="Sacute" unicode="&#x15a;" horiz-adv-x="602" 
d="M457 825l-217 -102l-29 54l201 133zM542 201q0 -82 -67.5 -148t-192.5 -66q-122 0 -222 61l38 74q92 -57 186 -57q68 0 108.5 32.5t40.5 87.5q0 84 -114 117l-72 21q-82 24 -122.5 65.5t-40.5 112.5q0 89 63 144.5t165 55.5q119 0 211 -65l-43 -68q-89 54 -164 54
q-58 0 -91.5 -28t-33.5 -76q0 -37 23.5 -60t78.5 -39l81 -24q75 -22 121.5 -70.5t46.5 -123.5z" />
    <glyph glyph-name="sacute" unicode="&#x15b;" horiz-adv-x="549" 
d="M408 670l-217 -102l-29 54l201 133zM489 163q0 -44 -24 -82t-66 -61q-58 -31 -141 -31q-108 0 -198 48l36 74q82 -44 167 -44q49 0 80 18q40 22 40 61q0 29 -22.5 47.5t-72.5 32.5l-76 20q-56 15 -94 52.5t-38 91.5q0 71 57.5 116t146.5 45q116 0 193 -53l-44 -69
q-71 43 -145 43q-47 0 -75.5 -18.5t-28.5 -50.5q0 -25 19.5 -41t65.5 -28l73 -19q147 -38 147 -152z" />
    <glyph glyph-name="Scaron" unicode="&#x160;" horiz-adv-x="602" 
d="M481 862l-169 -139l-171 139l36 50l139 -84l133 84zM542 201q0 -82 -67.5 -148t-192.5 -66q-122 0 -222 61l38 74q92 -57 186 -57q68 0 108.5 32.5t40.5 87.5q0 84 -114 117l-72 21q-82 24 -122.5 65.5t-40.5 112.5q0 89 63 144.5t165 55.5q119 0 211 -65l-43 -68
q-89 54 -164 54q-58 0 -91.5 -28t-33.5 -76q0 -37 23.5 -60t78.5 -39l81 -24q75 -22 121.5 -70.5t46.5 -123.5z" />
    <glyph glyph-name="scaron" unicode="&#x161;" horiz-adv-x="549" 
d="M442 716l-169 -139l-171 139l36 50l139 -84l133 84zM489 163q0 -44 -24 -82t-66 -61q-58 -31 -141 -31q-108 0 -198 48l36 74q82 -44 167 -44q49 0 80 18q40 22 40 61q0 29 -22.5 47.5t-72.5 32.5l-76 20q-56 15 -94 52.5t-38 91.5q0 71 57.5 116t146.5 45q116 0 193 -53
l-44 -69q-71 43 -145 43q-47 0 -75.5 -18.5t-28.5 -50.5q0 -25 19.5 -41t65.5 -28l73 -19q147 -38 147 -152z" />
    <glyph glyph-name="Tcaron" unicode="&#x164;" horiz-adv-x="463" 
d="M411 862l-169 -139l-171 139l36 50l139 -84l133 84zM483 689l-10 -80h-179v-609h-95v609h-179v80h463z" />
    <glyph glyph-name="tcaron" unicode="&#x165;" horiz-adv-x="446" 
d="M390 701l-169 -139l-171 139l36 50l139 -84l133 84zM436 537l-13 -79h-155v-458h-95v458h-153v79h416z" />
    <glyph glyph-name="Umacron" unicode="&#x16a;" horiz-adv-x="644" 
d="M461 752h-281v68h281v-68zM554 216q0 -65 -6.5 -91.5t-29.5 -54.5q-66 -81 -198 -81q-155 0 -208 96q-14 24 -18 47t-4 76v481h97v-445q0 -105 25 -134q34 -39 109 -39q78 0 112 45q25 32 25 114v459h96v-473z" />
    <glyph glyph-name="umacron" unicode="&#x16b;" horiz-adv-x="596" 
d="M429 600h-261v68h261v-68zM506 191q0 -63 -10 -93t-38 -56q-56 -51 -160 -51q-141 0 -187 84q-21 37 -21 114v348h96v-330q0 -63 8 -82q22 -55 105 -55q64 0 90 34q20 27 20 91v342h97v-346z" />
    <glyph glyph-name="Uring" unicode="&#x16e;" horiz-adv-x="644" 
d="M420 820q0 -43 -30.5 -74.5t-72.5 -31.5q-41 0 -70.5 31.5t-29.5 74.5t30.5 74.5t71.5 31.5t71 -31.5t30 -74.5zM554 216q0 -65 -6.5 -91.5t-29.5 -54.5q-66 -81 -198 -81q-155 0 -208 96q-14 24 -18 47t-4 76v481h97v-445q0 -105 25 -134q34 -39 109 -39q78 0 112 45
q25 32 25 114v459h96v-473zM378 820q0 26 -17.5 44.5t-40.5 18.5q-26 0 -44 -18.5t-18 -44.5t17.5 -44.5t41.5 -18.5q25 0 43 18.5t18 44.5z" />
    <glyph glyph-name="uring" unicode="&#x16f;" horiz-adv-x="596" 
d="M398 665q0 -43 -30.5 -74.5t-72.5 -31.5q-41 0 -70.5 31.5t-29.5 74.5t30.5 74.5t71.5 31.5t71 -31.5t30 -74.5zM506 191q0 -63 -10 -93t-38 -56q-56 -51 -160 -51q-141 0 -187 84q-21 37 -21 114v348h96v-330q0 -63 8 -82q22 -55 105 -55q64 0 90 34q20 27 20 91v342h97
v-346zM356 665q0 26 -17.5 44.5t-40.5 18.5q-26 0 -44 -18.5t-18 -44.5t17.5 -44.5t41.5 -18.5q25 0 43 18.5t18 44.5z" />
    <glyph glyph-name="Uhungarumlaut" unicode="&#x170;" horiz-adv-x="644" 
d="M609 877l-179 -150l-40 42l152 173zM391 905l-151 -182l-49 35l123 198zM554 216q0 -65 -6.5 -91.5t-29.5 -54.5q-66 -81 -198 -81q-155 0 -208 96q-14 24 -18 47t-4 76v481h97v-445q0 -105 25 -134q34 -39 109 -39q78 0 112 45q25 32 25 114v459h96v-473z" />
    <glyph glyph-name="uhungarumlaut" unicode="&#x171;" horiz-adv-x="596" 
d="M532 756l-147 -181l-48 33l117 199zM328 776l-113 -207l-55 25l83 218zM506 191q0 -63 -10 -93t-38 -56q-56 -51 -160 -51q-141 0 -187 84q-21 37 -21 114v348h96v-330q0 -63 8 -82q22 -55 105 -55q64 0 90 34q20 27 20 91v342h97v-346z" />
    <glyph glyph-name="Uogonek" unicode="&#x172;" horiz-adv-x="644" 
d="M554 216q0 -65 -6.5 -91.5t-29.5 -54.5q-45 -55 -119 -72q-28 -7 -54.5 -37t-25.5 -63q0 -14 9 -23.5t26 -9.5q31 0 59 14l23 -52q-48 -25 -90 -25q-46 0 -72.5 25t-26.5 63q0 47 47 100q-133 7 -182 95q-14 24 -18 47t-4 76v481h97v-445q0 -105 25 -134q34 -39 109 -39
q78 0 112 45q25 32 25 114v459h96v-473z" />
    <glyph glyph-name="uogonek" unicode="&#x173;" horiz-adv-x="596" 
d="M506 191q0 -63 -10 -93t-38 -56q-31 -28 -78 -42q-34 -10 -60 -39.5t-25 -62.5q2 -33 35 -33q31 0 59 14l23 -52q-48 -25 -90 -25q-46 0 -72.5 25t-26.5 63q0 50 48 102q-118 8 -160 83q-21 37 -21 114v348h96v-330q0 -63 8 -82q22 -55 105 -55q64 0 90 34q20 27 20 91
v342h97v-346z" />
    <glyph glyph-name="Zacute" unicode="&#x179;" horiz-adv-x="535" 
d="M409 825l-217 -102l-29 54l201 133zM485 80l-24 -80h-411v74l278 467q18 31 49 71q-30 -3 -79 -3h-236l23 80h396v-77l-275 -467q-8 -14 -23 -36t-20 -30q21 1 69 1h253z" />
    <glyph glyph-name="zacute" unicode="&#x17a;" horiz-adv-x="490" 
d="M396 670l-217 -102l-29 54l201 133zM440 78l-26 -78h-364v66l244 347l42 51q-42 -5 -71 -5h-206l24 78h352v-70l-240 -348l-41 -48q44 7 64 7h222z" />
    <glyph glyph-name="Zdotaccent" unicode="&#x17b;" horiz-adv-x="535" 
d="M341 797q0 -27 -19.5 -46.5t-47.5 -19.5q-27 0 -45.5 19.5t-18.5 46.5q0 28 19 47.5t46 19.5t46.5 -19.5t19.5 -47.5zM485 80l-24 -80h-411v74l278 467q18 31 49 71q-30 -3 -79 -3h-236l23 80h396v-77l-275 -467q-8 -14 -23 -36t-20 -30q21 1 69 1h253z" />
    <glyph glyph-name="zdotaccent" unicode="&#x17c;" horiz-adv-x="490" 
d="M315 647q0 -27 -19.5 -46.5t-47.5 -19.5q-27 0 -45.5 19.5t-18.5 46.5q0 28 19 47.5t46 19.5t46.5 -19.5t19.5 -47.5zM440 78l-26 -78h-364v66l244 347l42 51q-42 -5 -71 -5h-206l24 78h352v-70l-240 -348l-41 -48q44 7 64 7h222z" />
    <glyph glyph-name="Zcaron" unicode="&#x17d;" horiz-adv-x="535" 
d="M443 861l-169 -139l-171 139l36 50l139 -84l133 84zM485 80l-24 -80h-411v74l278 467q18 31 49 71q-30 -3 -79 -3h-236l23 80h396v-77l-275 -467q-8 -14 -23 -36t-20 -30q21 1 69 1h253z" />
    <glyph glyph-name="zcaron" unicode="&#x17e;" horiz-adv-x="490" 
d="M427 716l-169 -139l-171 139l36 50l139 -84l133 84zM440 78l-26 -78h-364v66l244 347l42 51q-42 -5 -71 -5h-206l24 78h352v-70l-240 -348l-41 -48q44 7 64 7h222z" />
    <glyph glyph-name="caron" unicode="&#x2c7;" horiz-adv-x="400" 
d="M370 701l-169 -139l-171 139l36 50l139 -84l133 84z" />
    <glyph glyph-name="Delta" unicode="&#x394;" horiz-adv-x="624" 
d="M583 0h-542l220 588h98zM459 81l-151 398l-145 -398h296z" />
    <glyph glyph-name="endash" unicode="&#x2013;" horiz-adv-x="581" 
d="M531 240h-481v75h481v-75z" />
    <glyph glyph-name="emdash" unicode="&#x2014;" horiz-adv-x="805" 
d="M755 240h-705v75h705v-75z" />
    <glyph glyph-name="quoteleft" unicode="&#x2018;" horiz-adv-x="257" 
d="M212 668q-27 -11 -46 -33t-19 -42q0 -4 1.5 -7t5 -6t6.5 -4.5l9 -4.5t9 -5q33 -19 33 -58q0 -32 -21 -53.5t-52 -21.5q-36 0 -59.5 29t-23.5 74q0 58 35.5 106t89.5 71z" />
    <glyph glyph-name="quoteright" unicode="&#x2019;" horiz-adv-x="257" 
d="M202 601q0 -58 -35.5 -106t-89.5 -71l-32 45q27 11 46 33t19 42q0 4 -1.5 7t-5 6t-6.5 4.5l-9 4.5t-9 5q-33 19 -33 58q0 32 21 53.5t52 21.5q36 0 59.5 -29t23.5 -74z" />
    <glyph glyph-name="quotesinglbase" unicode="&#x201a;" horiz-adv-x="257" 
d="M202 34q0 -58 -35.5 -106t-89.5 -71l-32 45q27 11 46 33t19 42q0 4 -1.5 7t-5 6t-6.5 4.5l-9 4.5t-9 5q-33 19 -33 58q0 32 21 53.5t52 21.5q36 0 59.5 -29t23.5 -74z" />
    <glyph glyph-name="quotedblleft" unicode="&#x201c;" horiz-adv-x="464" 
d="M419 668q-27 -11 -46 -33t-19 -42q0 -4 1.5 -7t5 -6t6.5 -4.5l9 -4.5t9 -5q33 -19 33 -58q0 -32 -21 -53.5t-52 -21.5q-36 0 -59.5 29t-23.5 74q0 58 35.5 106t89.5 71zM212 668q-27 -11 -46 -33t-19 -42q0 -4 1.5 -7t5 -6t6.5 -4.5l9 -4.5t9 -5q33 -19 33 -58
q0 -32 -21 -53.5t-52 -21.5q-36 0 -59.5 29t-23.5 74q0 58 35.5 106t89.5 71z" />
    <glyph glyph-name="quotedblright" unicode="&#x201d;" horiz-adv-x="464" 
d="M409 601q0 -58 -35.5 -106t-89.5 -71l-32 45q27 11 46 33t19 42q0 4 -1.5 7t-5 6t-6.5 4.5l-9 4.5t-9 5q-33 19 -33 58q0 32 21 53.5t52 21.5q36 0 59.5 -29t23.5 -74zM202 601q0 -58 -35.5 -106t-89.5 -71l-32 45q27 11 46 33t19 42q0 4 -1.5 7t-5 6t-6.5 4.5l-9 4.5
t-9 5q-33 19 -33 58q0 32 21 53.5t52 21.5q36 0 59.5 -29t23.5 -74z" />
    <glyph glyph-name="quotedblbase" unicode="&#x201e;" horiz-adv-x="466" 
d="M411 34q0 -58 -35.5 -106t-89.5 -71l-32 45q27 11 46 33t19 42q0 4 -1.5 7t-5 6t-6.5 4.5l-9 4.5t-9 5q-33 19 -33 58q0 32 21 53.5t52 21.5q36 0 59.5 -29t23.5 -74zM202 34q0 -58 -35.5 -106t-89.5 -71l-32 45q27 11 46 33t19 42q0 4 -1.5 7t-5 6t-6.5 4.5l-9 4.5t-9 5
q-33 19 -33 58q0 32 21 53.5t52 21.5q36 0 59.5 -29t23.5 -74z" />
    <glyph glyph-name="dagger" unicode="&#x2020;" horiz-adv-x="475" 
d="M445 530l-13 -81h-146v-449h-92v449h-154v81h154v159h92v-159h159z" />
    <glyph glyph-name="bullet" unicode="&#x2022;" horiz-adv-x="507" 
d="M427 355q0 -73 -51 -125t-123 -52t-122.5 51.5t-50.5 125.5t50.5 125.5t122.5 51.5t123 -52t51 -125z" />
    <glyph glyph-name="ellipsis" unicode="&#x2026;" horiz-adv-x="758" 
d="M688 63q0 -31 -21.5 -54t-50.5 -23q-30 0 -50.5 22.5t-20.5 54.5q0 31 20.5 52t49.5 21q30 0 51.5 -21t21.5 -52zM450 63q0 -32 -21 -54.5t-50 -22.5q-30 0 -50.5 22.5t-20.5 54.5q0 31 20 52t49 21q31 0 52 -21t21 -52zM213 63q0 -31 -21 -54t-50 -23q-30 0 -51 22.5
t-21 54.5q0 31 20.5 52t49.5 21q30 0 51.5 -21t21.5 -52z" />
    <glyph glyph-name="guilsinglleft" unicode="&#x2039;" horiz-adv-x="299" 
d="M259 422l-116 -178l115 -179l-62 -42l-146 221l146 222z" />
    <glyph glyph-name="guilsinglright" unicode="&#x203a;" horiz-adv-x="299" 
d="M249 244l-146 -221l-62 42l117 179l-118 177l63 45z" />
    <glyph glyph-name="trademark" unicode="&#x2122;" horiz-adv-x="967" 
d="M907 296h-75v324l-8 -2l-122 -322h-50l-123 322l-6 1v-323h-75v412h114l116 -305l116 305h113v-412zM357 637h-126v-341h-75v341h-126v71h327v-71z" />
    <glyph glyph-name="partialdiff" unicode="&#x2202;" horiz-adv-x="522" 
d="M489 248q0 -124 -63 -194t-163 -70q-97 0 -160 64.5t-63 169.5q0 95 59 154.5t151 59.5q54 0 99 -15q-33 69 -97 125q-113 98 -239 111l55 67q71 -8 156.5 -51.5t142.5 -109.5q122 -142 122 -311zM384 239q0 21 -9 84q-16 11 -50 20t-65 9q-53 0 -83 -35.5t-30 -100.5
q0 -66 33.5 -106.5t88.5 -40.5t85 46t30 124z" />
    <glyph glyph-name="summation" unicode="&#x2211;" horiz-adv-x="496" 
d="M459 85l-27 -85h-391l1 72l260 272l-252 266l26 76h379l-29 -84h-248l248 -257l-259 -260h292z" />
    <glyph glyph-name="radical" unicode="&#x221a;" horiz-adv-x="532" 
d="M541 710l-255 -710h-85l-149 434h-62v74h138l83 -249q18 -53 35 -113q12 43 33 103l162 461h100z" />
    <glyph glyph-name="notequal" unicode="&#x2260;" horiz-adv-x="666" 
d="M586 175h-300l-101 -170l-53 34l85 136h-155v82h203l53 91h-256v82h302l103 171l52 -33l-85 -138h152v-82h-200l-54 -91h254v-82z" />
    <glyph glyph-name="lessequal" unicode="&#x2264;" horiz-adv-x="460" 
d="M409 124l-367 138v76l367 172v-97l-240 -107l240 -88v-94zM409 26h-367v84h367v-84z" />
    <glyph glyph-name="greaterequal" unicode="&#x2265;" horiz-adv-x="460" 
d="M409 262l-367 -138v94l240 88l-240 107v97l367 -172v-76zM409 26h-367v84h367v-84z" />
    <glyph glyph-name="lozenge" unicode="&#x25ca;" horiz-adv-x="735" 
d="M675 319l-307 -349l-308 349l308 349zM565 319l-197 230l-197 -230l197 -229z" />
  </font>
</defs>
</svg>
